# xmcd CD database file
#
# Track frame offsets:
#	150
#	15386
#	33832
#	52536
#	71250
#	89183
#	107644
#	125198
#	142060
#	162021
#
# Disc length: 2483 seconds
#
# Revision: 0
# Processed by: cddbd v1.5.1PL0 Copyright (c) Steve Scherf et al.
# Submitted via: CDex 1.51
#
DISCID=7d09b10a
DTITLE=Maurice Anderson - Steel with Brass
DYEAR=1992
DGENRE=Jazz
TTITLE0=Undecided
TTITLE1=Stompin' at the Savoy
TTITLE2=Stardust
TTITLE3=Red Top
TTITLE4=Flintstones
TTITLE5=Don't Get Around Much Anymore
TTITLE6=You Don't Know Me
TTITLE7=The More I See You
TTITLE8=Heart of Mine
TTITLE9=Secret Love
EXTD=YEAR: 1992
EXTT0=
EXTT1=
EXTT2=
EXTT3=
EXTT4=
EXTT5=
EXTT6=
EXTT7=
EXTT8=
EXTT9=
PLAYORDER=
